first trial
nRows=13
nColumns=38

# SIMM Motion File Header:
name Sujet_08_velo_60.mvnx
datacolumns 38
datarows 13
otherdata 1
range 0.0000 0.2000
endheader
time pelvis_tilt  pelvis_list  pelvis_rotation  pelvis_tx  pelvis_ty  pelvis_tz  hip_flexion_r  hip_adduction_r  hip_rotation_r  knee_angle_r  ankle_angle_r  subtalar_angle_r  mtp_angle_r  hip_flexion_l  hip_adduction_l  hip_rotation_l  knee_angle_l  ankle_angle_l  subtalar_angle_l  mtp_angle_l  lumbar_extension  lumbar_bending  lumbar_rotation  arm_flex_r  arm_add_r  arm_rot_r  elbow_flex_r  pro_sup_r  wrist_flex_r  wrist_dev_r  arm_flex_l  arm_add_l  arm_rot_l  elbow_flex_l  pro_sup_l  wrist_flex_l  wrist_dev_l
0.0000	-25.9158	-0.5496	21.4500	0.0000	1.2500	-0.0000	52.1462	-8.5619	-19.0685	42.5875	-11.0296	1.1405	0.0000	103.0536	0.8117	1.3839	97.7530	-8.5137	0.4586	0.0000	-10.4760	0.3938	0.3815	90.1366	-4.6643	31.8756	-7.8835	82.9170	-32.8351	-16.7623	82.0583	8.8412	40.1150	-4.5292	77.0153	-31.8788	-14.7642	
0.0170	-25.2651	-0.7094	21.1416	0.0000	1.2500	-0.0000	52.6202	-8.2214	-19.1523	46.1928	-9.8663	1.3392	0.0000	101.2862	0.7809	0.5986	94.9241	-8.2880	1.0160	-0.0000	-10.8066	0.3821	0.4903	90.2179	-4.6852	32.0215	-7.7495	82.7484	-32.8107	-16.6697	82.0060	8.8371	40.2445	-4.4549	76.8672	-31.8270	-14.7086	
0.0340	-24.6137	-0.8646	20.8368	0.0000	1.2500	-0.0000	53.0922	-7.8814	-19.2448	49.8192	-8.7038	1.5297	0.0000	99.5223	0.7629	-0.1956	92.1014	-8.0641	1.5466	-0.0000	-11.1372	0.3694	0.5990	90.2992	-4.7059	32.1674	-7.6157	82.5798	-32.7864	-16.5770	81.9537	8.8331	40.3740	-4.3810	76.7190	-31.7754	-14.6529	
0.0500	-24.0627	-0.9907	20.5423	0.0000	1.2500	-0.0000	53.8865	-7.7319	-19.0373	53.6944	-7.7496	1.7410	0.0000	97.6217	0.6303	-1.0066	89.0985	-7.8828	1.9874	-0.0000	-11.4203	0.3539	0.6951	90.4047	-4.7138	32.3038	-7.5239	82.4725	-32.7658	-16.5094	81.9163	8.8224	40.4493	-4.3345	76.6263	-31.7316	-14.6072	
0.0670	-23.6571	-1.0787	20.2795	0.0000	1.2500	-0.0000	55.1661	-7.8809	-18.3484	57.9832	-7.0827	1.9843	0.0000	95.5479	0.3403	-1.8097	85.8421	-7.7347	2.3606	0.0000	-11.6354	0.3397	0.7688	90.5547	-4.7110	32.4310	-7.5017	82.4579	-32.7477	-16.4809	81.8892	8.8111	40.4374	-4.3276	76.6244	-31.6960	-14.5657	
0.0840	-23.3523	-1.1406	20.0245	0.0000	1.2500	-0.0000	56.7805	-8.1825	-17.3438	62.4912	-6.6159	2.2359	-0.0000	93.3313	-0.0494	-2.6436	82.3929	-7.6290	2.6701	-0.0000	-11.8029	0.3233	0.8297	90.7288	-4.6949	32.5487	-7.5211	82.5045	-32.7331	-16.4775	81.8770	8.7929	40.3715	-4.3477	76.6780	-31.6681	-14.5340	
0.1000	-23.1160	-1.1847	19.7148	0.0000	1.2500	-0.0000	58.5801	-8.4423	-16.2406	66.9161	-6.3100	2.4866	0.0000	90.9299	-0.5025	-3.6196	78.7578	-7.6322	2.8320	-0.0000	-11.9369	0.2913	0.8947	90.8900	-4.6461	32.6456	-7.5409	82.5788	-32.7292	-16.4813	81.9088	8.7423	40.2965	-4.3843	76.7365	-31.6545	-14.5383	
0.1170	-22.9454	-1.2124	19.3173	0.0000	1.2500	-0.0000	60.5435	-8.5949	-15.0805	71.2095	-6.2178	2.7673	0.0000	88.2900	-0.9997	-4.8452	74.8856	-7.7374	2.7665	0.0000	-12.0392	0.2380	0.9680	91.0306	-4.5496	32.7257	-7.5438	82.6675	-32.7401	-16.4857	82.0069	8.6414	40.2073	-4.4337	76.8015	-31.6578	-14.5931	
0.1340	-22.8434	-1.2230	18.8646	0.0000	1.2500	-0.0000	62.6912	-8.6830	-13.8322	75.4246	-6.2908	3.0658	0.0000	85.4617	-1.5155	-6.2380	70.8210	-7.9500	2.5562	-0.0000	-12.1076	0.1692	1.0453	91.1580	-4.4206	32.7847	-7.5473	82.7840	-32.7617	-16.4973	82.1487	8.5081	40.1092	-4.4997	76.8713	-31.6754	-14.6839	
0.1500	-22.7847	-1.2198	18.3946	0.0000	1.2500	-0.0000	64.9262	-8.6976	-12.6162	79.4337	-6.3450	3.3243	-0.0000	82.5611	-2.0130	-7.6197	66.7138	-8.3549	2.3500	0.0000	-12.1503	0.0885	1.1304	91.2576	-4.2854	32.7993	-7.5619	82.9349	-32.7889	-16.5177	82.2961	8.3704	40.0631	-4.5847	76.8892	-31.7059	-14.7934	
0.1670	-22.7766	-1.1997	17.9124	0.0000	1.2500	-0.0000	67.2300	-8.6446	-11.4624	83.2124	-6.3136	3.5249	-0.0000	79.5863	-2.4951	-8.9812	62.5396	-8.9782	2.2345	0.0000	-12.1641	-0.0064	1.2258	91.3220	-4.1502	32.7440	-7.5924	83.1365	-32.8217	-16.5510	82.4416	8.2356	40.1267	-4.7025	76.8048	-31.7550	-14.9252	
0.1840	-22.8120	-1.1672	17.4124	0.0000	1.2500	-0.0000	69.6155	-8.5175	-10.3505	86.7854	-6.2654	3.6925	0.0000	76.5371	-2.9483	-10.3376	58.3304	-9.7933	2.1202	-0.0000	-12.1519	-0.1128	1.3294	91.3587	-4.0088	32.6446	-7.6346	83.3725	-32.8602	-16.5931	82.5929	8.0959	40.2419	-4.8391	76.6685	-31.8173	-15.0758	
0.2000	-22.8442	-1.1356	16.9162	0.0000	1.2500	-0.0000	72.0297	-8.3050	-9.3245	90.0996	-6.2194	3.8241	-0.0000	73.5347	-3.3515	-11.5330	54.3323	-10.8055	1.8910	0.0000	-12.1313	-0.2205	1.4382	91.3757	-3.8688	32.5537	-7.6850	83.6010	-32.9000	-16.6328	82.7352	7.9574	40.2966	-4.9550	76.5752	-31.8739	-15.2170	
